filtEMG_segment_16.mot
version=1
nRows=84
nColumns=5
inDegrees=no
endheader
                Time	                LGAS	             LLATGAS	                LSOL	                LTIA	
          4.17500000	          0.00272795	          0.01131272	          0.00225346	          0.00191615	
          4.18000000	          0.00263513	          0.01135026	          0.00227016	          0.00199587	
          4.18500000	          0.00256152	          0.01134626	          0.00226552	          0.00207774	
          4.19000000	          0.00251062	          0.01129207	          0.00224056	          0.00215336	
          4.19500000	          0.00248373	          0.01118219	          0.00219749	          0.00221557	
          4.20000000	          0.00248016	          0.01101491	          0.00213945	          0.00225920	
          4.20500000	          0.00249766	          0.01079277	          0.00207016	          0.00228179	
          4.21000000	          0.00253298	          0.01052262	          0.00199368	          0.00228382	
          4.21500000	          0.00258245	          0.01021548	          0.00191405	          0.00226879	
          4.22000000	          0.00264252	          0.00988594	          0.00183508	          0.00224284	
          4.22500000	          0.00271013	          0.00955123	          0.00176010	          0.00221411	
          4.23000000	          0.00278299	          0.00923002	          0.00169193	          0.00219186	
          4.23500000	          0.00285952	          0.00894098	          0.00163274	          0.00218548	
          4.24000000	          0.00293878	          0.00870127	          0.00158415	          0.00220333	
          4.24500000	          0.00302013	          0.00852510	          0.00154722	          0.00225181	
          4.25000000	          0.00310293	          0.00842244	          0.00152260	          0.00233457	
          4.25500000	          0.00318609	          0.00839807	          0.00151060	          0.00245192	
          4.26000000	          0.00326785	          0.00845110	          0.00151131	          0.00260071	
          4.26500000	          0.00334555	          0.00857484	          0.00152469	          0.00277446	
          4.27000000	          0.00341560	          0.00875727	          0.00155062	          0.00296389	
          4.27500000	          0.00347363	          0.00898192	          0.00158892	          0.00315771	
          4.28000000	          0.00351476	          0.00922904	          0.00163941	          0.00334365	
          4.28500000	          0.00353410	          0.00947714	          0.00170180	          0.00350956	
          4.29000000	          0.00352721	          0.00970458	          0.00177569	          0.00364451	
          4.29500000	          0.00349067	          0.00989121	          0.00186046	          0.00373982	
          4.30000000	          0.00342260	          0.01001982	          0.00195517	          0.00378980	
          4.30500000	          0.00332307	          0.01007745	          0.00205854	          0.00379228	
          4.31000000	          0.00319431	          0.01005635	          0.00216888	          0.00374875	
          4.31500000	          0.00304082	          0.00995453	          0.00228407	          0.00366418	
          4.32000000	          0.00286916	          0.00977589	          0.00240164	          0.00354652	
          4.32500000	          0.00268760	          0.00953000	          0.00251884	          0.00340584	
          4.33000000	          0.00250554	          0.00923129	          0.00263277	          0.00325344	
          4.33500000	          0.00233282	          0.00889799	          0.00274050	          0.00310066	
          4.34000000	          0.00217892	          0.00855071	          0.00283924	          0.00295785	
          4.34500000	          0.00205217	          0.00821076	          0.00292645	          0.00283346	
          4.35000000	          0.00195897	          0.00789850	          0.00299997	          0.00273325	
          4.35500000	          0.00190324	          0.00763170	          0.00305806	          0.00265997	
          4.36000000	          0.00188594	          0.00742419	          0.00309948	          0.00261322	
          4.36500000	          0.00190496	          0.00728484	          0.00312351	          0.00258975	
          4.37000000	          0.00195516	          0.00721706	          0.00312994	          0.00258405	
          4.37500000	          0.00202873	          0.00721889	          0.00311909	          0.00258915	
          4.38000000	          0.00211582	          0.00728358	          0.00309181	          0.00259759	
          4.38500000	          0.00220532	          0.00740063	          0.00304952	          0.00260236	
          4.39000000	          0.00228580	          0.00755730	          0.00299423	          0.00259783	
          4.39500000	          0.00234653	          0.00774008	          0.00292850	          0.00258041	
          4.40000000	          0.00237847	          0.00793631	          0.00285545	          0.00254905	
          4.40500000	          0.00237515	          0.00813540	          0.00277867	          0.00250532	
          4.41000000	          0.00233333	          0.00832977	          0.00270210	          0.00245322	
          4.41500000	          0.00225347	          0.00851517	          0.00262981	          0.00239872	
          4.42000000	          0.00213983	          0.00869061	          0.00256575	          0.00234901	
          4.42500000	          0.00200028	          0.00885770	          0.00251347	          0.00231163	
          4.43000000	          0.00184575	          0.00901980	          0.00247584	          0.00229358	
          4.43500000	          0.00168942	          0.00918083	          0.00245477	          0.00230044	
          4.44000000	          0.00154565	          0.00934429	          0.00245108	          0.00233567	
          4.44500000	          0.00142882	          0.00951227	          0.00246433	          0.00240016	
          4.45000000	          0.00135203	          0.00968497	          0.00249292	          0.00249203	
          4.45500000	          0.00132595	          0.00986046	          0.00253416	          0.00260672	
          4.46000000	          0.00135777	          0.01003487	          0.00258446	          0.00273743	
          4.46500000	          0.00145049	          0.01020291	          0.00263965	          0.00287568	
          4.47000000	          0.00160245	          0.01035857	          0.00269525	          0.00301218	
          4.47500000	          0.00180738	          0.01049580	          0.00274681	          0.00313768	
          4.48000000	          0.00205474	          0.01060922	          0.00279022	          0.00324389	
          4.48500000	          0.00233056	          0.01069454	          0.00282201	          0.00332433	
          4.49000000	          0.00261854	          0.01074877	          0.00283958	          0.00337493	
          4.49500000	          0.00290142	          0.01077025	          0.00284140	          0.00339449	
          4.50000000	          0.00316244	          0.01075840	          0.00282714	          0.00338477	
          4.50500000	          0.00338676	          0.01071340	          0.00279770	          0.00335035	
          4.51000000	          0.00356266	          0.01063585	          0.00275517	          0.00329812	
          4.51500000	          0.00368247	          0.01052642	          0.00270263	          0.00323657	
          4.52000000	          0.00374304	          0.01038573	          0.00264392	          0.00317490	
          4.52500000	          0.00374580	          0.01021425	          0.00258328	          0.00312206	
          4.53000000	          0.00369625	          0.01001246	          0.00252496	          0.00308574	
          4.53500000	          0.00360322	          0.00978115	          0.00247277	          0.00307164	
          4.54000000	          0.00347771	          0.00952181	          0.00242970	          0.00308285	
          4.54500000	          0.00333167	          0.00923720	          0.00239759	          0.00311957	
          4.55000000	          0.00317671	          0.00893187	          0.00237698	          0.00317914	
          4.55500000	          0.00302312	          0.00861271	          0.00236702	          0.00325642	
          4.56000000	          0.00287899	          0.00828937	          0.00236562	          0.00334439	
          4.56500000	          0.00274983	          0.00797452	          0.00236970	          0.00343494	
          4.57000000	          0.00263850	          0.00768385	          0.00237559	          0.00351976	
          4.57500000	          0.00254546	          0.00743577	          0.00237939	          0.00359123	
          4.58000000	          0.00246937	          0.00725077	          0.00237749	          0.00364314	
          4.58500000	          0.00240774	          0.00715043	          0.00236685	          0.00367126	
          4.59000000	          0.00235768	          0.00715610	          0.00234534	          0.00367365	
